# xmcd
#
# Track frame offsets:
#	150
#	15849
#	33772
#	52366
#	72339
#	90217
#	109475
#	127807
#	146711
#	164054
#
# Disc length: 2469 seconds
# Revision: 0
# Processed by: cddbd v1.5.2PL0 Copyright (c) Steve Scherf et al.
# Submitted via: dBpowerAMP V12.0
#
DISCID=8409a30a
DTITLE=Laura Rain and the Caesars - Walk with Me
DYEAR=1900
DGENRE=
TTITLE0=Walk With ME
TTITLE1=In My Life
TTITLE2=Hi Fidelity Man
TTITLE3=Maybe We Can Make Things Happen
TTITLE4=Upstream
TTITLE5=Don't Lose Your Way
TTITLE6=Learning the Hard Way
TTITLE7=Tear Down These Walls
TTITLE8=What Kind of Love is This
TTITLE9=Be Your Fool
EXTD=
EXTT0=
EXTT1=
EXTT2=
EXTT3=
EXTT4=
EXTT5=
EXTT6=
EXTT7=
EXTT8=
EXTT9=
PLAYORDER=
